<?xml version="1.0" standalone="no"?>
<!DOCTYPE svg PUBLIC "-//W3C//DTD SVG 20010904//EN"
 "http://www.w3.org/TR/2001/REC-SVG-20010904/DTD/svg10.dtd">
<svg version="1.0" xmlns="http://www.w3.org/2000/svg"
 width="70.000000pt" height="70.000000pt" viewBox="0 0 70.000000 70.000000"
 preserveAspectRatio="xMidYMid meet">
<metadata>
Created by potrace 1.11, written by Peter Selinger 2001-2013
</metadata>
<g transform="translate(0.000000,70.000000) scale(0.100000,-0.100000)"
fill="#000000" stroke="none">
<path d="M284 645 c-4 -9 -19 -15 -36 -15 -17 0 -27 -4 -23 -10 3 -5 2 -10 -3
-10 -5 0 -12 -9 -15 -21 -3 -12 -10 -18 -16 -15 -5 4 -11 -4 -13 -16 -2 -13
-11 -24 -22 -26 -25 -5 -44 -24 -39 -38 2 -7 -10 -33 -27 -58 -18 -26 -33 -52
-34 -59 -1 -7 -12 -42 -25 -79 -12 -37 -19 -73 -15 -79 4 -8 3 -9 -4 -5 -7 4
-12 1 -12 -10 0 -19 55 -97 97 -136 33 -31 70 -41 65 -18 -12 50 -15 69 -14
107 0 23 4 47 7 53 10 16 48 -22 97 -95 l40 -60 59 -1 c55 -1 61 1 74 26 8 15
35 53 61 85 40 49 49 55 59 42 13 -18 12 -76 -3 -129 -11 -42 6 -59 33 -32 8
9 15 12 15 9 0 -4 23 21 51 54 29 36 47 65 43 72 -4 8 -3 9 4 5 17 -10 15 17
-3 61 -8 19 -15 44 -15 54 0 11 -4 19 -10 19 -5 0 -7 7 -4 15 4 8 1 15 -5 15
-6 0 -10 3 -9 8 4 13 -14 56 -39 94 -14 20 -23 40 -20 45 3 4 -1 14 -9 21 -8
7 -14 10 -14 6 0 -3 -6 -1 -13 5 -8 6 -17 8 -20 4 -4 -3 -7 3 -7 15 0 11 -10
28 -22 36 -12 9 -19 16 -14 16 5 0 1 9 -8 19 -10 11 -25 17 -33 14 -9 -4 -21
1 -29 11 -7 10 -18 15 -24 11 -17 -11 -80 -13 -80 -3 0 14 -20 9 -26 -7z"/>
</g>
</svg>
